# xmcd
# 
# Track frame offsets:
#     150
#     15117
#     26360
#     40670
#     49002
#     67057
#     92077
#     104822
#     114360
#     130340
#     146442
#     165700
#     171307
# 
# Disc length: 2361
# 
# Revision: 67
# Processed by: cddbd v1.5.2PL0 Copyright (c) Steve Scherf et al.
# Submitted via: BonkEnc v1.0.6
# 
DISCID=a809370d
DTITLE=Pink Floyd - The Wall - Disc 1
DYEAR=1979
DGENRE=Rock
TTITLE0=In The Flesh?
TTITLE1=The Thin Ice
TTITLE2=Another Brick In The Wall (Part I)
TTITLE3=The Happiest Days Of Our Lives
TTITLE4=Another Brick In The Wall (Part II)
TTITLE5=Mother
TTITLE6=Goodbye Blue Sky
TTITLE7=Empty Spaces
TTITLE8=Young Lust
TTITLE9=One Of My Turns
TTITLE10=Don't Leave Me Now
TTITLE11=Another Brick In The Wall (Part III)
TTITLE12=Goodbye Cruel World
EXTD=Year: 1979\nLabel: Capitol\nUPC: 07464-36183-2 YEAR: 1992
EXTT0=
EXTT1=
EXTT2=
EXTT3=
EXTT4=
EXTT5=
EXTT6=
EXTT7=
EXTT8=
EXTT9=
EXTT10=
EXTT11=
EXTT12=
PLAYORDER=
